# Blender 4.2.1 LTS
# www.blender.org
mtllib platform.mtl
g Top_Cube
v 0.707583 -0.128867 -0.989553
v 0.776294 -0.075751 0.721358
v -0.764771 -0.070842 -0.805650
v -0.819208 -0.128867 0.894044
v 0.333333 -0.091942 -1.000000
v -0.333333 -0.128867 -1.000000
v -0.333333 -0.018971 1.000000
v 0.333333 -0.128867 1.000000
v -1.217021 -0.128867 -0.321185
v -1.000000 -0.081245 0.333333
v 1.000000 -0.075751 0.333333
v 1.082234 -0.053771 -0.524873
v 0.333333 0.135115 -0.333333
v 0.333333 0.135115 0.333333
v -0.333333 0.135115 -0.333333
v -0.333333 0.135115 0.333333
v 0.660786 0.135115 -0.892805
v 0.707583 0.085928 -0.989553
v 0.708758 0.135115 0.662160
v 0.776294 0.085928 0.721358
v -0.738651 0.135115 -0.718718
v -0.764771 0.085928 -0.805650
v -0.738904 0.135115 0.810871
v -0.819208 0.085928 0.894044
v 0.333333 0.135115 0.898769
v 0.333333 0.085928 1.000000
v -0.333333 0.085928 1.000000
v -0.333333 0.135115 0.899200
v -0.333333 0.135115 -0.901547
v -0.333333 0.085928 -1.000000
v 0.333333 0.085928 -1.000000
v 0.333333 0.135115 -0.901848
v 0.978702 0.135115 -0.498394
v 1.082234 0.085928 -0.524873
v 1.000000 0.085928 0.333333
v 0.898682 0.135115 0.333333
v -0.892611 0.135115 0.333333
v -1.000000 0.085928 0.333333
v -1.217021 0.085928 -0.321185
v -1.109307 0.135115 -0.322665
vn 0.4149 -0.0000 -0.9099
vn 0.6898 -0.0000 0.7240
vn -0.5763 -0.0000 -0.8172
vn -0.7928 -0.0000 0.6095
vn 0.0148 -0.0000 -0.9999
vn -0.1722 -0.0000 -0.9851
vn -0.1100 -0.0000 0.9939
vn 0.3192 -0.0000 0.9477
vn -0.9829 -0.0000 -0.1841
vn -0.9505 -0.0000 0.3107
vn 0.9481 -0.0000 0.3180
vn 0.9398 -0.0000 -0.3417
vn -0.0000 1.0000 -0.0000
vn 0.0542 0.9926 -0.1091
vn 0.3084 0.7190 -0.6228
vn 0.0839 0.9932 0.0810
vn 0.5407 0.6616 0.5195
vn -0.0679 0.9934 -0.0929
vn -0.4407 0.6480 -0.6212
vn -0.0830 0.9923 0.0921
vn -0.4527 0.7398 0.4978
vn 0.0339 0.9932 0.1117
vn 0.1965 0.6907 0.6959
vn -0.0753 0.7050 0.7052
vn -0.0115 0.9944 0.1049
vn -0.0245 0.9936 -0.1102
vn -0.1501 0.6883 -0.7097
vn 0.0099 0.7003 -0.7138
vn 0.0014 0.9950 -0.1003
vn 0.1145 0.9928 -0.0347
vn 0.6667 0.7182 -0.1992
vn 0.6907 0.6898 0.2171
vn 0.1072 0.9936 0.0356
vn -0.0933 0.9952 0.0305
vn -0.6650 0.7146 0.2174
vn -0.6894 0.7097 -0.1450
vn -0.1244 0.9918 -0.0303
vt 0.708333 0.666667
vt 0.791667 0.666667
vt 0.791667 0.737400
vt 0.708333 0.737346
vt 0.861576 0.666667
vt 0.857875 0.735450
vt 0.791667 0.512307
vt 0.859519 0.518100
vt 0.864842 0.583333
vt 0.791667 0.583333
vt 0.637665 0.666667
vt 0.708333 0.737346
vt 0.643037 0.730649
vt 0.644570 0.515170
vt 0.708333 0.512269
vt 0.708333 0.583333
vt 0.636520 0.583333
vt 0.375000 0.166667
vt 0.613052 0.166667
vt 0.613052 0.250000
vt 0.375000 0.250000
vt 0.375000 0.583333
vt 0.613052 0.583333
vt 0.613052 0.666667
vt 0.375000 0.666667
vt 0.613052 0.750000
vt 0.375000 0.750000
vt 0.613052 0.250000
vt 0.613052 0.333333
vt 0.375000 0.333333
vt 0.375000 0.833333
vt 0.613052 0.833333
vt 0.613052 0.916667
vt 0.375000 0.916667
vt 0.613052 0.416667
vt 0.375000 0.416667
vt 0.613052 0.833333
vt 0.613052 0.416667
vt 0.613052 0.500000
vt 0.375000 0.500000
vt 0.613052 0.916667
vt 0.613052 1.000000
vt 0.375000 1.000000
vt 0.375000 0.000000
vt 0.613052 0.000000
vt 0.613052 0.083333
vt 0.375000 0.083333
vt 0.625000 0.920266
vt 0.625000 0.989822
vt 0.625000 0.176045
vt 0.625000 0.244251
vt 0.625000 0.417276
vt 0.625000 0.490189
vt 0.625000 0.754084
vt 0.625000 0.824750
vt 0.625000 0.833333
vt 0.625000 0.916667
vt 0.625000 0.250000
vt 0.625000 0.326212
vt 0.625000 0.333333
vt 0.625000 0.416667
vt 0.625000 0.007711
vt 0.625000 0.078672
vt 0.625000 0.083333
vt 0.625000 0.162740
s 1
usemtl Material
f 14/1/13 16/2/13 28/3/25 25/4/22
f 16/2/13 37/5/34 23/6/20 28/3/25
f 29/7/26 21/8/18 40/9/37 15/10/13
f 36/11/33 14/1/13 25/12/22 19/13/16
f 17/14/14 32/15/29 13/16/13 33/17/30
f 9/18/9 39/19/36 22/20/19 3/21/3
f 12/22/12 34/23/31 35/24/32 11/25/11
f 11/25/11 35/24/32 20/26/17 2/27/2
f 32/15/29 29/7/26 15/10/13 13/16/13
f 3/21/3 22/28/19 30/29/27 6/30/6
f 8/31/8 26/32/23 27/33/24 7/34/7
f 6/30/6 30/29/27 31/35/28 5/36/5
f 13/16/13 15/10/13 16/2/13 14/1/13
f 2/27/2 20/26/17 26/37/23 8/31/8
f 15/10/13 40/9/37 37/5/34 16/2/13
f 5/36/5 31/38/28 18/39/15 1/40/1
f 33/17/30 13/16/13 14/1/13 36/11/33
f 7/34/7 27/41/24 24/42/21 4/43/4
f 4/44/4 24/45/21 38/46/35 10/47/10
f 10/47/10 38/46/35 39/19/36 9/18/9
f 28/48/25 23/49/20 24/42/21 27/41/24
f 36/11/33 19/13/16 20/26/17 35/24/32
f 40/50/37 21/51/18 22/20/19 39/19/36
f 32/52/29 17/53/14 18/39/15 31/38/28
f 19/54/16 25/55/22 26/37/23 20/26/17
f 25/56/22 28/57/25 27/33/24 26/32/23
f 21/58/18 29/59/26 30/29/27 22/28/19
f 29/60/26 32/61/29 31/35/28 30/29/27
f 17/14/14 33/17/30 34/23/31 18/39/15
f 33/17/30 36/11/33 35/24/32 34/23/31
f 23/62/20 37/63/34 38/46/35 24/45/21
f 37/64/34 40/65/37 39/19/36 38/46/35
f 1/40/1 18/39/15 34/23/31 12/22/12
g Base_Cube.002
v 0.707583 -0.128867 -0.989553
v 0.776294 -0.075914 0.721358
v -0.764771 -0.072393 -0.805650
v -0.819208 -0.128867 0.894044
v 0.333333 -0.091715 -1.000000
v -0.333333 -0.128867 -1.000000
v -0.333333 -0.021730 1.000000
v 0.333333 -0.128867 1.000000
v -1.217021 -0.128867 -0.321185
v -1.000000 -0.080924 0.333333
v 1.000000 -0.074845 0.333333
v 1.082234 -0.053660 -0.524873
v -0.333333 -0.422295 -0.333333
v -0.333333 -0.569959 0.333333
v 0.333333 -0.235547 -0.333333
v 0.333333 -0.366233 0.333333
vn 0.0764 -0.9901 -0.1174
vn 0.3613 -0.8961 0.2579
vn -0.2929 -0.8766 -0.3819
vn -0.2778 -0.8572 0.4336
vn 0.0247 -0.9659 -0.2577
vn -0.0446 -0.9349 -0.3521
vn 0.0508 -0.8288 0.5573
vn 0.1851 -0.8886 0.4197
vn -0.3850 -0.9048 -0.1820
vn -0.5066 -0.8606 0.0518
vn 0.3414 -0.9393 0.0328
vn 0.2740 -0.9601 -0.0565
vn -0.0481 -0.9858 -0.1609
vn -0.0364 -0.9975 0.0606
vn 0.2182 -0.9599 -0.1761
vn 0.2300 -0.9677 0.1029
vt 0.291667 0.666667
vt 0.375000 0.666667
vt 0.375000 0.750000
vt 0.125000 0.666667
vt 0.208333 0.666667
vt 0.125000 0.750000
vt 0.291667 0.750000
vt 0.208333 0.750000
vt 0.208333 0.500000
vt 0.291667 0.500000
vt 0.291667 0.583333
vt 0.208333 0.583333
vt 0.125000 0.500000
vt 0.125000 0.583333
vt 0.375000 0.500000
vt 0.375000 0.583333
s 1
usemtl Material
f 56/66/53 51/67/48 42/68/39
f 50/69/47 54/70/51 44/71/41
f 54/70/51 56/66/53 48/72/45 47/73/44
f 46/74/43 45/75/42 55/76/52 53/77/50
f 53/77/50 55/76/52 54/70/51
f 43/78/40 53/77/50 49/79/46
f 49/79/46 53/77/50 54/70/51 50/69/47
f 45/75/42 41/80/38 55/76/52
f 55/76/52 52/81/49 51/67/48 56/66/53
f 53/77/50 43/78/40 46/74/43
f 44/71/41 54/70/51 47/73/44
f 42/68/39 48/72/45 56/66/53
f 55/76/52 41/80/38 52/81/49
f 54/70/51 55/76/52 56/66/53
